<svg width="290" height="151" viewBox="0 0 290 151" fill="none" xmlns="http://www.w3.org/2000/svg">
<path d="M235.083 11.8525C192.996 0.293399 173.249 10.0967 144.999 10.0967C116.748 10.0967 97.0016 0.293399 54.9141 11.8525C39.7799 16.5347 21.9072 21.6558 3.89027 0.732352C2.44892 -0.877144 -0.289648 0.439716 -0.0013777 2.63448C3.02546 23.2653 8.64673 54.8699 13.8356 78.4271C18.0155 97.7411 30.1229 114.129 46.8426 124.078C47.4191 124.371 47.9956 124.664 48.428 125.103C108.244 159.926 181.609 159.926 241.425 125.103C242.002 124.81 242.578 124.517 243.011 124.078C259.73 114.275 271.838 97.7411 276.018 78.5734C281.206 55.0163 286.828 23.2653 289.854 2.7808C290.143 0.586034 287.404 -0.730827 285.963 0.87867C268.09 21.5095 250.361 16.5347 235.083 11.8525ZM44.9688 59.6984C47.1308 61.6006 57.2203 57.9426 67.1656 53.5531C90.2272 45.9446 107.379 44.0424 120.64 81.9388C68.3187 98.4727 42.8068 57.65 44.9688 59.6984ZM169.357 81.9388C182.618 43.8961 199.914 45.9446 222.832 53.5531C232.777 58.0889 242.722 61.7469 245.028 59.6984C247.335 57.65 221.823 98.4727 169.357 81.9388Z" fill="url(#paint0_linear_252_11)"/>
<defs>
<linearGradient id="paint0_linear_252_11" x1="-0.0013777" y1="75.5289" x2="290.053" y2="75.5289" gradientUnits="userSpaceOnUse">
<stop stop-color="#DF21D4"/>
<stop offset="1" stop-color="#884AF6"/>
</linearGradient>
</defs>
</svg>
